<?xml version="1.0" encoding="utf-8"?>
<!-- Generator: Adobe Illustrator 25.2.3, SVG Export Plug-In . SVG Version: 6.00 Build 0)  -->
<svg version="1.1" id="Layer_1" xmlns="http://www.w3.org/2000/svg" xmlns:xlink="http://www.w3.org/1999/xlink" x="0px" y="0px"
	 viewBox="0 0 207 54" enable-background="new 0 0 207 54" xml:space="preserve">
<g>
	<path fill="#E79224" d="M22.897,39.716c-0.447-0.039-0.895-0.076-1.342-0.118c-0.36-0.034-0.72-0.079-1.08-0.109
		c-0.186-0.016-0.171-0.134-0.165-0.263c0.074-1.527,0.287-3.034,0.636-4.523c0.534-2.283,1.385-4.428,2.756-6.344
		c1.108-1.548,2.437-2.862,4.145-3.75c0.037-0.019,0.07-0.048,0.094-0.119c-0.077,0.012-0.155,0.016-0.229,0.037
		c-2.145,0.612-3.962,1.75-5.441,3.419c-1.699,1.918-2.752,4.178-3.413,6.624c-0.332,1.23-0.552,2.491-0.822,3.741
		c-0.248-0.465-0.526-0.958-0.777-1.464c-0.649-1.313-1.13-2.686-1.318-4.141c-0.291-2.254,0.12-4.359,1.446-6.243
		c1.27-1.804,3.007-3.011,5.011-3.859c1.472-0.623,2.956-1.217,4.305-2.091c1.371-0.888,2.592-1.927,3.442-3.352
		c0.56-0.939,0.853-1.957,0.874-3.043c0.009-0.454-0.083-0.909-0.126-1.334c0.938,1.275,1.777,2.661,2.509,4.112
		c1.069,2.12,1.925,4.316,2.396,6.651c0.655,3.25,0.59,6.459-0.595,9.592c-0.983,2.598-2.801,4.393-5.353,5.451
		c-1.396,0.579-2.859,0.891-4.364,1.011c-0.421,0.034-0.841,0.075-1.262,0.113C23.781,39.716,23.339,39.716,22.897,39.716z"/>
	<path d="M20.444,16.045c-0.002,0.725-0.547,1.266-1.274,1.265c-0.705-0.001-1.29-0.582-1.285-1.276
		c0.005-0.685,0.61-1.281,1.298-1.278C19.885,14.758,20.446,15.331,20.444,16.045z"/>
	<path d="M27.977,16.689c-0.004,0.67-0.502,1.155-1.181,1.151c-0.631-0.003-1.161-0.533-1.165-1.165
		c-0.004-0.627,0.555-1.179,1.191-1.178C27.472,15.499,27.981,16.024,27.977,16.689z"/>
	<path d="M17.301,22.533c-0.405-0.009-0.717-0.338-0.702-0.737c0.016-0.398,0.349-0.702,0.753-0.688
		c0.383,0.013,0.702,0.348,0.692,0.727C18.035,22.235,17.708,22.542,17.301,22.533z"/>
	<path d="M20.122,21.078c0.002,0.279-0.2,0.478-0.481,0.474c-0.256-0.003-0.471-0.219-0.471-0.472c0-0.251,0.247-0.495,0.495-0.488
		C19.916,20.599,20.121,20.817,20.122,21.078z"/>
	<path d="M23.623,19.056c0.002,0.221-0.135,0.368-0.35,0.374c-0.214,0.006-0.397-0.17-0.39-0.374
		c0.006-0.186,0.193-0.37,0.377-0.372C23.451,18.68,23.621,18.855,23.623,19.056z"/>
</g>
<g>
	<path d="M48.928,15.224v15.622c0,2.133-0.453,3.79-1.358,4.972s-2.16,1.772-3.762,1.772c-1.731,0-3.102-0.648-4.111-1.945
		c-1.01-1.296-1.515-3.146-1.515-5.552h3.342c0,1.129,0.181,1.997,0.541,2.604s0.893,0.909,1.599,0.909
		c0.641,0,1.113-0.245,1.418-0.736s0.457-1.166,0.457-2.023V15.224H48.928z"/>
	<path d="M55.153,15.224v12.987c0,1.735,0.293,3.037,0.878,3.905s1.431,1.302,2.536,1.302c1.09,0,1.927-0.434,2.513-1.302
		c0.585-0.868,0.877-2.17,0.877-3.905V15.224h3.366v12.987c0,2.05-0.293,3.779-0.878,5.191c-0.585,1.411-1.395,2.462-2.428,3.152
		c-1.034,0.69-2.208,1.035-3.522,1.035c-2.035,0-3.662-0.795-4.88-2.384s-1.827-3.921-1.827-6.995V15.224H55.153z"/>
	<path d="M82.681,37.37h-3.39l-7.597-15.057V37.37h-3.39V15.224h3.39l7.597,15.183V15.224h3.39V37.37z"/>
	<path d="M98.763,16.996c1.362,1.328,2.236,3.121,2.621,5.38h-3.559c-0.336-1.004-0.869-1.804-1.599-2.399s-1.591-0.895-2.584-0.895
		c-0.978,0-1.843,0.294-2.597,0.879c-0.753,0.586-1.338,1.422-1.755,2.509c-0.417,1.088-0.625,2.364-0.625,3.827
		c0,2.321,0.477,4.131,1.431,5.427c0.953,1.297,2.256,1.945,3.906,1.945c1.218,0,2.264-0.471,3.138-1.412
		c0.873-0.94,1.438-2.247,1.694-3.921H93.09v-3.168h8.582v4.266c-0.24,1.465-0.709,2.813-1.406,4.047
		c-0.697,1.234-1.61,2.223-2.74,2.964c-1.13,0.743-2.425,1.114-3.883,1.114c-1.667,0-3.138-0.476-4.411-1.428
		c-1.274-0.951-2.26-2.279-2.957-3.983s-1.046-3.654-1.046-5.851c0-2.195,0.349-4.146,1.046-5.85s1.679-3.038,2.944-4
		c1.267-0.961,2.732-1.442,4.399-1.442C95.686,15.005,97.4,15.669,98.763,16.996z"/>
	<path d="M107.61,33.982h5.697v3.388h-9.087V15.224h3.39V33.982z"/>
	<path d="M118.717,18.737v5.74h6.01v3.388h-6.01v5.96h6.73v3.545h-10.12V15.224h10.12v3.514H118.717z"/>
	<path d="M144.198,34.438c-0.433,0.951-1.073,1.715-1.923,2.29s-1.884,0.862-3.102,0.862c-1.202,0-2.275-0.267-3.222-0.8
		c-0.945-0.533-1.702-1.302-2.271-2.306s-0.894-2.175-0.974-3.514h3.606c0.08,0.899,0.356,1.647,0.829,2.243
		s1.102,0.894,1.888,0.894c0.704,0,1.245-0.245,1.622-0.736s0.565-1.124,0.565-1.898c0-0.689-0.152-1.26-0.457-1.709
		c-0.305-0.45-0.689-0.811-1.154-1.083c-0.465-0.271-1.105-0.585-1.923-0.94c-1.058-0.46-1.923-0.915-2.597-1.364
		c-0.673-0.45-1.246-1.104-1.719-1.961s-0.709-1.977-0.709-3.356c0-1.902,0.524-3.403,1.574-4.501
		c1.05-1.099,2.44-1.647,4.171-1.647c1.795,0,3.226,0.564,4.292,1.694c1.065,1.129,1.671,2.635,1.814,4.517h-3.654
		c-0.096-0.794-0.353-1.447-0.769-1.96c-0.417-0.513-0.986-0.769-1.707-0.769c-0.625,0-1.13,0.215-1.515,0.643
		c-0.385,0.429-0.577,1.051-0.577,1.866c0,0.648,0.148,1.188,0.445,1.616c0.296,0.429,0.673,0.779,1.13,1.051
		c0.456,0.271,1.077,0.575,1.862,0.909c1.09,0.502,1.976,0.973,2.657,1.412c0.681,0.438,1.262,1.098,1.742,1.976
		c0.481,0.879,0.722,2.029,0.722,3.451C144.848,32.445,144.631,33.486,144.198,34.438z"/>
	<path d="M169.608,15.224l-4.159,22.146h-4.183l-3.174-16.061l-3.197,16.061h-4.158l-4.159-22.146h3.678l2.597,17.159l3.365-17.159
		h3.727l3.39,17.159l2.597-17.159H169.608z"/>
	<path d="M182.254,32.916h-6.804l-1.202,4.454h-3.582l6.251-21.896h3.87l6.227,21.896h-3.582L182.254,32.916z M181.34,29.56
		l-2.5-9.348l-2.5,9.348H181.34z"/>
	<path d="M192.23,29.151v8.219h-3.39V15.224h6.178c2.003,0,3.514,0.628,4.532,1.883c1.018,1.255,1.526,2.959,1.526,5.113
		c0,2.112-0.525,3.795-1.575,5.05s-2.544,1.882-4.483,1.882H192.23z M197.639,22.22c0-1.108-0.232-1.956-0.696-2.541
		c-0.466-0.586-1.227-0.879-2.284-0.879h-2.428v6.808h2.428C196.646,25.607,197.639,24.478,197.639,22.22z"/>
</g>
</svg>
